<?xml version="1.0" encoding="iso-8859-1"?>
<!-- Generator: Adobe Illustrator 19.0.0, SVG Export Plug-In . SVG Version: 6.00 Build 0)  -->
<svg version="1.1" id="Capa_1" xmlns="http://www.w3.org/2000/svg" xmlns:xlink="http://www.w3.org/1999/xlink" x="0px" y="0px"
	 viewBox="0 0 431.573 431.573" style="enable-background:new 0 0 431.573 431.573;" xml:space="preserve">
<g>
	<g>
		<g>
			<path d="M215.787,60.373v97.707L370.56,312.853c29.12-63.04,17.92-140.16-34.133-192.213L215.787,0l-79.04,79.04l30.187,30.187
				L215.787,60.373z"/>
			<path d="M400.213,396.907l-50.24-50.24L215.787,212.48l-76.053-76.053l-30.187-30.187L50.88,47.573l-27.093,27.2l59.307,59.307
				c-54.4,66.987-50.347,165.653,11.947,228.053c33.28,33.28,77.013,50.027,120.64,50.027c38.08,0,76.16-12.693,107.307-37.973
				l57.6,57.387l27.2-27.2L400.213,396.907z M215.787,369.387c-34.24,0-66.347-13.333-90.453-37.44
				c-24.213-24.213-37.547-56.32-37.547-90.56c0-28.16,9.173-54.827,25.813-76.907l102.187,102.293V369.387z"/>
		</g>
	</g>
</g>
<g>
</g>
<g>
</g>
<g>
</g>
<g>
</g>
<g>
</g>
<g>
</g>
<g>
</g>
<g>
</g>
<g>
</g>
<g>
</g>
<g>
</g>
<g>
</g>
<g>
</g>
<g>
</g>
<g>
</g>
</svg>
